<mxfile host="app.diagrams.net" modified="2023-11-09T05:06:42.297Z" agent="Mozilla/5.0 (Windows NT 10.0; Win64; x64) AppleWebKit/537.36 (KHTML, like Gecko) Chrome/118.0.0.0 Safari/537.36" version="22.1.0" etag="i_lNjFB766Axrm5_LEhJ" type="github">
  <diagram name="Page-1" id="P0SaeJZDm6O6zoFYc23t">
    <mxGraphModel>
      <root>
        <mxCell id="0" />
        <mxCell id="1" parent="0" />
      </root>
    </mxGraphModel>
  </diagram>
</mxfile>
